<mxfile host="app.diagrams.net" modified="2023-11-29T15:57:24.953Z" agent="Mozilla/5.0 (Windows NT 10.0; Win64; x64) AppleWebKit/537.36 (KHTML, like Gecko) Chrome/109.0.0.0 Safari/537.36" version="22.1.5" etag="MYR5QD82_ZuOBBgujZlb" type="github">
  <diagram name="PÃ¡gina-1" id="-bhHod5kBAYXy1dUUhGd">
    <mxGraphModel>
      <root>
        <mxCell id="0" />
        <mxCell id="1" parent="0" />
      </root>
    </mxGraphModel>
  </diagram>
</mxfile>
